<?xml version="1.0" encoding="UTF-8" standalone="no"?>

<svg xmlns="http://www.w3.org/2000/svg" version="1.1" width="100%" height="100%" viewBox="0 0 29700 7500">
	<path fill="#2B2A29" d="M3560,1003c716,0,1364,290,1833,759s759,1117,759,1833-290,1364-759,1833-1117,759-1833,759-1364-290-1833-759-759-1117-759-1833,290-1364,759-1833,1117-759,1833-759zm-1471,4612c15,0,30-1,46-1,118-3,264-6,367-40,109-36,216-102,307-186s167-186,211-291c43-100,55-195,71-309l2-14c13-92,25-185,38-277,12-88,24-175,36-262l1-6,6,1c41,6,85,2,137-1,35-3,72-5,115-6,141-2,275-28,391-81,111-50,207-124,282-224,27-36,73-113,104-191,21-52,35-105,33-146-30,0-83,0-148-1-243-2-654-5-781,6l-11,1,4-10c9-22,20-43,31-65,12-22,24-44,38-67,53-86,111-161,177-229,66-67,139-127,219-182,259-176,469-183,665-190,193-6,372-12,569-181,61-52,126-118,179-199,52-80,92-177,107-293-45-3-145-4-262-4-204,0-457,2-548,3-224,3-438,41-637,111-202,71-389,176-558,311-32,28-60,52-86,74-93,78-159,134-321,328-144,193-229,350-287,531s-90,385-129,671l-121,890c-74,268-102,313-249,532zm978-3721c-70-70-167-114-275-114-107,0-204,43-275,114-70,70-114,167-114,275,0,107,43,204,114,275,70,70,167,114,275,114,107,0,204-43,275-114,70-70,114-167,114-275,0-107-43-204-114-275z"/>
	<path fill="#2B2A29" d="M7868,1732v4008h-515v-4008h515zm1346,4008h-515v-2863h429l29,172h29c73-73,162-129,269-169s218-60,332-60c137,0,261,12,369,37,109,25,201,70,278,135,76,65,136,153,178,263,42,111,63,252,63,424v2061h-515v-2061c0-99-13-182-40-249s-65-120-115-160-107-68-172-83-137-23-218-23c-73,0-147,11-223,34s-136,50-178,80v2462zm2806-2433v1517c0,130,12,236,37,318s57,146,97,192,84,77,132,94,93,26,135,26h515v229c-34,15-79,30-135,43-55,13-113,26-172,37s-117,20-175,26c-57,6-107,9-149,9-115,0-220-13-318-40-97-27-182-75-255-146s-129-169-169-295-60-290-60-492v-1517h-344v-372h344v-687h515v687h802v258c-88,31-196,57-324,80s-249,34-364,34h-115zm3206,1174h-1489c0,187,15,343,46,467s77,223,140,298c63,74,145,128,246,160s224,49,369,49h573v229c-88,31-196,57-324,80s-249,34-364,34c-214,0-397-24-550-72s-278-129-375-243c-97-115-168-267-212-458s-66-429-66-716c0-286,21-525,63-716s105-344,189-458c84-115,189-196,315-243,126-48,271-72,435-72s309,24,435,72,231,129,315,243c84,115,147,267,189,458s63,429,63,716v172zm-515-344c0-195-13-356-40-484s-62-230-106-306-95-131-155-163c-59-32-121-49-186-49s-127,16-186,49c-59,32-111,87-155,163s-79,178-106,306-40,289-40,484h973zm1489,1603h-515v-2863h435l29,229h29c69-57,161-110,278-157,116-48,261-72,432-72h286v429h-573c-73,0-143,9-212,26s-132,47-189,89v2319zm1775-3035c0-199,20-362,60-490s96-227,169-298,157-119,255-146c97-27,203-40,318-40,42,0,92,3,149,9s115,14,175,26c59,11,116,24,172,37,55,13,100,28,135,43v229h-515c-42,0-87,9-135,26s-92,49-132,94c-40,46-73,110-97,192-25,82-37,188-37,318v229h802v258c-88,31-196,57-324,80s-249,34-364,34h-115v2433h-515v-2433h-344v-372h344v-229zm2949,1632h-401c-145,0-267,37-366,112-99,74-149,219-149,432,0,115,13,209,40,283s63,133,109,175,100,72,163,89,131,26,203,26c73,0,147-11,223-34s136-50,178-80v-1002zm-573,1460c-130,0-247-12-352-37s-195-72-269-140c-74-69-133-162-175-281-42-118-63-271-63-458,0-179,21-326,63-441s100-205,175-272c74-67,164-113,269-137,105-25,222-37,352-37,88,0,183,6,286,17s198,25,286,40v-258c0-130-14-236-43-318s-70-146-123-192-119-77-198-94c-78-17-167-26-266-26h-573v-229c88-31,196-57,324-80s249-34,364-34c172,0,322,13,449,40,128,27,235,75,321,146s151,170,195,298,66,291,66,490v1947h-429l-29-172h-29c-73,73-162,129-269,169s-218,60-332,60zm2662-2634c-107,0-201,17-283,52-82,34-151,94-206,180s-97,202-126,349-43,335-43,564,14,418,43,567,73,266,132,352,134,145,223,178c90,32,196,49,318,49h573v229c-88,31-196,57-324,80s-249,34-364,34c-195,0-362-24-501-72s-255-129-346-243c-92-115-159-267-203-458s-66-429-66-716c0-286,22-525,66-716s110-344,198-458c88-115,198-196,329-243,132-48,287-72,467-72,115,0,236,11,364,34s236,50,324,80v229h-573zm2920,1317h-1489c0,187,15,343,46,467s77,223,140,298c63,74,145,128,246,160s224,49,369,49h573v229c-88,31-196,57-324,80s-249,34-364,34c-214,0-397-24-550-72s-278-129-375-243c-97-115-168-267-212-458s-66-429-66-716c0-286,21-525,63-716s105-344,189-458c84-115,189-196,315-243,126-48,271-72,435-72s309,24,435,72,231,129,315,243c84,115,147,267,189,458s63,429,63,716v172zm-515-344c0-195-13-356-40-484s-62-230-106-306-95-131-155-163c-59-32-121-49-186-49s-127,16-186,49c-59,32-111,87-155,163s-79,178-106,306-40,289-40,484h973zm2462,1431c-73,73-162,129-269,169s-218,60-332,60c-149,0-282-24-401-72-118-48-218-129-298-243-80-115-141-267-183-458s-63-429-63-716c0-286,21-525,63-716s103-344,183-458c80-115,179-196,298-243,118-48,252-72,401-72,115,0,217,13,306,40,90,27,178,61,266,103v-1231h515v4008h-429l-29-172h-29zm-29-2290c-42-31-101-57-178-80-76-23-151-34-223-34-92,0-175,17-249,52-74,34-137,94-189,180s-92,202-120,349c-29,147-43,335-43,564s14,418,43,567,69,266,120,352c52,86,115,145,189,178,74,32,157,49,249,49,73,0,147-11,223-34s136-50,178-80v-2061z"/>
</svg>
